<?xml version="1.0" encoding="UTF-8"?><svg id="_레이어_1" xmlns="http://www.w3.org/2000/svg" viewBox="0 0 617.03 428.81"><defs><style>.cls-1{fill:#3e3736;}</style></defs><path class="cls-1" d="M141.72,367.29v15.06h-3.11v-15.06l-10.04-22.36h3.47l8.28,19.15,8.23-19.15h3.31l-10.14,22.36Z"/><path class="cls-1" d="M210.85,383.07c-8.8,0-10.4-5.69-10.4-13.41v-24.74h3.11v24.79c0,5.59.78,10.61,7.3,10.61s7.14-5.02,7.14-10.4v-25h3.11v25c0,8.18-2.18,13.15-10.25,13.15Z"/><path class="cls-1" d="M273.67,382.35v-37.42h3.11v34.68h11.8v2.74h-14.91Z"/><path class="cls-1" d="M353.36,382.35c-.31-1.45-.52-4.3-.52-7.45s-.05-5.85-.41-7.5c-.52-2.28-1.97-3.26-6-3.26h-5.23v18.22h-3.11v-37.42h9.06c6.42,0,9.37,2.59,9.37,9.01,0,4.5-1.09,7.56-5.7,8.9,3.68.41,4.61,2.38,4.87,4.24.26,1.71.31,4.92.31,7.76,0,1.81.21,5.59.52,7.5h-3.16ZM347.05,347.67h-5.85v13.77h4.14c5.9,0,7.97-1.4,7.97-7.51,0-4.71-1.97-6.26-6.26-6.26Z"/><path class="cls-1" d="M408.37,382.35v-37.42h16.04v2.74h-12.94v14.18h12.37v2.64h-12.37v15.11h13.3v2.74h-16.41Z"/><path class="cls-1" d="M494.32,376.91c-1.35,3.57-3.83,6.16-9.32,6.16s-7.97-2.38-9.37-5.75c-1.09-2.69-1.4-4.55-1.4-13.66s.26-12.37,2.64-15.73c1.6-2.28,4.5-3.73,8.13-3.73,4.4,0,6.42,1.35,8.02,3.47,2.38,3.16,2.69,7.45,2.69,15.94,0,7.56-.26,10.35-1.4,13.3ZM491.73,352.85c-.67-3.31-2.33-5.95-6.73-5.95s-6.31,3-6.94,6.78c-.52,3.05-.52,6.83-.52,9.94,0,3.31-.1,7.04.52,10.3.78,3.99,2.38,6.47,6.94,6.47,4.24,0,5.9-2.69,6.73-6.06.88-3.52.67-7.76.67-10.66,0-3.42.05-7.45-.67-10.82Z"/><path class="cls-1" d="M95.88,167.24c-3.08,3.63-6.71,7.71-10.87,12.23-4.17,4.53-8.61,9.33-13.32,14.41-1.09-1.63-2.13-2.99-3.13-4.08-1-1.09-2.08-2.08-3.26-2.99-1.18-.9-2.58-1.77-4.21-2.58-1.63-.81-3.53-1.67-5.71-2.58,3.62-2.17,7.02-4.44,10.2-6.8,3.17-2.35,6.34-5.03,9.51-8.02,3.17-2.99,6.34-6.34,9.52-10.06,3.17-3.71,6.66-7.92,10.47-12.64,3.26-4.17,6.11-7.84,8.56-11.01,2.45-3.17,4.48-6.12,6.11-8.83,1.63-2.72,3.03-5.34,4.21-7.88,1.17-2.54,2.22-5.25,3.13-8.15,3.08,3.08,5.66,5.3,7.75,6.66,2.08,1.36,4.12,2.4,6.12,3.13,3.08.91,4.53,2.36,4.35,4.35-.18,2-2,3.53-5.44,4.62-1.81.54-4.12,2.31-6.93,5.3-2.81,2.99-6.66,7.84-11.55,14.54v148.96h-17.67c.9-7.43,1.5-14.41,1.77-20.93.27-6.52.41-13.68.41-21.48v-86.17ZM131.22,64.49c-1.45.37-3.63,1.77-6.52,4.21-2.9,2.45-7.34,7.3-13.32,14.54-5.08,6.35-10.29,12.33-15.63,17.94-5.35,5.62-11.46,11.51-18.35,17.67-1.27-1.63-2.36-2.99-3.26-4.08-.91-1.09-1.9-2.04-2.99-2.86-1.09-.81-2.27-1.63-3.53-2.45-1.27-.82-2.9-1.77-4.89-2.85,2.9-1.45,5.71-2.99,8.43-4.62s5.44-3.53,8.16-5.71c2.72-2.17,5.53-4.71,8.43-7.61,2.9-2.9,6.07-6.34,9.51-10.33,5.98-6.89,10.51-12.86,13.59-17.94,3.08-5.07,5.25-9.96,6.52-14.68,3.26,2.54,6.02,4.58,8.29,6.12,2.26,1.54,4.85,3.04,7.75,4.48,2.18,1.09,3.13,2.58,2.86,4.49-.27,1.9-1.95,3.13-5.03,3.67ZM201.9,167.24c-14.13,0-26.33.18-36.56.54-10.24.37-17.99.91-23.24,1.63v-17.12c5.43.73,13.54,1.32,24.33,1.77,10.78.45,22.6.68,35.47.68v-24.74h-18.48c-8.7,0-16.72.14-24.06.41-7.34.27-14.54.77-21.61,1.49l-.27-16.58c7.43.54,14.81.95,22.15,1.22,7.34.27,15.36.41,24.06.41h18.21v-25.28c-13.05,0-24.42.18-34.12.54-9.69.37-16.9.81-21.61,1.36v-16.04c4.71.73,11.78,1.27,21.2,1.63,9.42.37,20.93.54,34.52.54,0-4.71-.09-8.74-.27-12.1-.18-3.35-.32-6.29-.41-8.83-.09-2.54-.27-4.71-.54-6.52-.27-1.81-.59-3.62-.95-5.44,3.44.73,6.52,1.22,9.24,1.49,2.72.27,6.34.41,10.87.41,3.81,0,4.25,2.27,1.36,6.8-.91,1.27-1.54,2.4-1.9,3.4-.37,1-.55,2.31-.55,3.94v16.85c5.8,0,11.78-.04,17.94-.14,6.16-.09,12-.27,17.53-.54,5.53-.27,10.51-.5,14.95-.68,4.44-.18,7.84-.45,10.2-.81-.37,2.54-.68,5.03-.95,7.48-.27,2.45-.45,5.16-.54,8.15-.09,2.99-.18,6.39-.27,10.19-.09,3.81-.13,8.34-.13,13.59,6.34,0,11.69-.14,16.04-.41s8.52-.68,12.5-1.22l.27,16.04c-4.17-.54-8.43-.9-12.78-1.09-4.35-.18-9.7-.27-16.04-.27v15.36c0,3.9.09,7.25.27,10.06.18,2.81.36,5.26.54,7.34.18,2.09.45,4.31.82,6.66-2.54-.36-5.98-.68-10.33-.95-4.35-.27-9.24-.5-14.68-.68-5.43-.18-11.19-.31-17.26-.41-6.07-.09-12.1-.14-18.08-.14v26.91c16.13,0,29.54-.18,40.23-.54,10.69-.36,19.93-.9,27.73-1.63v17.67c-3.99-.36-8.15-.68-12.5-.95-4.35-.27-9.2-.5-14.54-.68-5.35-.18-11.33-.31-17.94-.41-6.62-.09-14.27-.14-22.97-.14v25.82c11.6,0,21.75-.04,30.45-.14,8.7-.09,16.49-.18,23.38-.27,6.89-.09,13.18-.27,18.89-.54s11.28-.59,16.72-.95v16.85c-5.44-.36-11.01-.68-16.72-.95-5.71-.27-12.1-.45-19.16-.54-7.07-.09-14.95-.18-23.65-.27-8.7-.09-18.67-.14-29.9-.14,0,10.15.14,19.53.41,28.13.27,8.6.68,15.81,1.22,21.61h-20.11c.54-5.8.95-12.91,1.22-21.34.27-8.43.41-17.89.41-28.41-10.15,0-18.99.05-26.5.14-7.52.09-14.27.18-20.25.27-5.98.09-11.55.27-16.72.54-5.16.27-10.56.59-16.17.95v-16.85c5.44.37,10.78.68,16.04.95,5.25.27,10.92.45,16.99.54,6.07.09,12.82.18,20.25.27,7.43.09,16.22.14,26.37.14v-25.82c-13.59,0-26.28.18-38.06.54-11.78.37-21.66.91-29.63,1.63v-17.67c7.97.91,17.85,1.54,29.63,1.9,11.78.37,24.47.45,38.06.27v-26.91ZM259.8,91.67h-41.05v25.28h41.05v-25.28ZM259.8,154.74v-24.74h-41.05v24.74h41.05Z"/><path class="cls-1" d="M373.69,294.73h-20.11c.9-5.98,1.5-11.6,1.77-16.85.27-5.26.41-11.05.41-17.4v-56c0-8.33-.64-15.13-1.9-20.39,3.26.18,6.7.32,10.33.41,3.62.09,7.79.18,12.5.27,4.71.09,10.1.18,16.17.27,6.07.09,13.09.14,21.07.14,2.53-6.34,4.76-12.64,6.66-18.89,1.9-6.25,3.85-13.91,5.84-22.97-11.42.18-21.3.37-29.63.54-8.34.18-16.31.45-23.92.81.72-5.25,1.27-11.32,1.63-18.21.36-6.89.54-14.31.54-22.29s-.18-15.09-.54-21.34c-.36-6.25-.91-12-1.63-17.26,5.07.37,10.28.64,15.63.82,5.34.18,11.15.32,17.4.41,6.25.09,13.18.18,20.79.27,7.61.09,16.22.14,25.83.14s17.89-.04,25.42-.14c7.52-.09,14.41-.18,20.66-.27,6.25-.09,12.05-.22,17.4-.41,5.34-.18,10.55-.45,15.63-.82-.54,5.08-1,10.87-1.36,17.4-.37,6.52-.54,13.59-.54,21.2,0,7.07.18,14.32.54,21.75.36,7.43.82,13.59,1.36,18.48-5.44-.18-11.01-.36-16.72-.54-5.71-.18-12.01-.31-18.89-.41-6.89-.09-14.64-.14-23.24-.14h-29.77c-2.36,7.61-4.71,14.64-7.07,21.07-2.36,6.43-4.99,13.37-7.88,20.79h40.78c11.42,0,21.24-.04,29.49-.14,8.24-.09,15.18-.14,20.79-.14s10.42-.04,14.41-.14c3.98-.09,7.43-.18,10.33-.27,2.9-.09,5.89-.22,8.97-.41-1.27,4.53-1.9,11.33-1.9,20.39v53.28c0,5.98.22,11.51.68,16.58.45,5.07,1.13,10.69,2.04,16.85h-20.66v-18.49h-159.29v22.02ZM532.99,199.32h-159.29v59.8h159.29v-59.8ZM512.33,81.34h-120.15v48.66h120.15v-48.66Z"/></svg>