<?xml version="1.0" encoding="UTF-8"?><svg id="_레이어_1" xmlns="http://www.w3.org/2000/svg" viewBox="0 0 430.57 428.81"><defs><style>.cls-1{fill:#231815;}</style></defs><rect class="cls-1" x="43.41" y="41.48" width="86.46" height="86.46" rx="43.23" ry="43.23" transform="translate(88.01 205.87) rotate(-135)"/><rect class="cls-1" x="301.67" y="41.48" width="86.46" height="86.46" rx="43.23" ry="43.23" transform="translate(528.89 388.49) rotate(-135)"/><rect class="cls-1" x="43.41" y="148.8" width="86.46" height="86.46" rx="43.23" ry="43.23" transform="translate(12.13 389.08) rotate(-135)"/><rect class="cls-1" x="301.67" y="150.32" width="86.46" height="86.46" rx="43.23" ry="43.23" transform="translate(451.93 574.29) rotate(-135)"/><rect class="cls-1" x="172.06" y="150.32" width="86.46" height="86.46" rx="43.23" ry="43.23" transform="translate(230.66 482.64) rotate(-135)"/><rect class="cls-1" x="172.06" y="41.48" width="86.46" height="86.46" rx="43.23" ry="43.23" transform="translate(307.62 296.84) rotate(-135)"/><rect class="cls-1" x="64.06" y="242.27" width="43.23" height="86.46" transform="translate(371.17 199.83) rotate(90)"/><rect class="cls-1" x="193.67" y="242.27" width="43.23" height="86.46" transform="translate(500.79 70.21) rotate(90)"/><rect class="cls-1" x="323.25" y="242.27" width="43.23" height="86.46" transform="translate(630.36 -59.36) rotate(90)"/><rect class="cls-1" x="64.06" y="322.48" width="43.23" height="86.46" transform="translate(451.39 280.04) rotate(90)"/><rect class="cls-1" x="193.67" y="322.48" width="43.23" height="86.46" transform="translate(581 150.43) rotate(90)"/><rect class="cls-1" x="323.25" y="322.48" width="43.23" height="86.46" transform="translate(710.58 20.85) rotate(90)"/></svg>