<?xml version="1.0" encoding="UTF-8"?><svg id="_레이어_1" xmlns="http://www.w3.org/2000/svg" viewBox="0 0 160.38 160.38"><defs><style>.cls-1{fill:#231815;}</style></defs><rect class="cls-1" x="16.04" y="64.15" width="32.08" height="32.08" rx="16.04" ry="16.04" transform="translate(64.15 160.38) rotate(180)"/><rect class="cls-1" x="112.26" y="64.15" width="32.08" height="32.08" rx="16.04" ry="16.04" transform="translate(256.6 160.38) rotate(180)"/><rect class="cls-1" x="64.15" y="112.26" width="32.08" height="32.08" rx="16.04" ry="16.04" transform="translate(160.38 256.6) rotate(-180)"/><rect class="cls-1" x="32.08" y="32.08" width="32.08" height="32.08" rx="16.04" ry="16.04" transform="translate(96.23 96.23) rotate(-180)"/><rect class="cls-1" x="96.23" y="32.08" width="32.08" height="32.08" rx="16.04" ry="16.04" transform="translate(224.53 96.23) rotate(180)"/><rect class="cls-1" x="32.08" y="96.23" width="32.08" height="32.08" rx="16.04" ry="16.04" transform="translate(96.23 224.53) rotate(180)"/><rect class="cls-1" x="96.23" y="96.23" width="32.08" height="32.08" rx="16.04" ry="16.04" transform="translate(224.53 224.53) rotate(180)"/><rect class="cls-1" x="64.15" y="16.04" width="32.08" height="16.04"/><rect class="cls-1" x="55.09" y="72.17" width="50.19" height="16.04"/></svg>